# xmcd
# 
# Track frame offsets:
#     150
#     17237
#     31071
#     45466
#     63023
#     78468
#     94898
#     109941
#     122962
#     135415
#     156244
#     169792
#     188703
#     203004
#     219542
#     235077
#     248047
#     265153
# 
# Disc length: 3750
# 
# Revision: 2
# Processed by: cddbd v1.5.2PL0 Copyright (c) Steve Scherf et al.
# Submitted via: BonkEnc v1.0.8
# 
DISCID=ed0ea412
DTITLE=Leonardo - Esse alguém sou eu
DYEAR=2009
DGENRE=Country
TTITLE0=Mais uma noite sem você
TTITLE1=Quem é o dono dos seus olhos
TTITLE2=O quanto nosso amor valeu
TTITLE3=Mentirosa
TTITLE4=Esse alguém sou eu
TTITLE5=Dor de amor não tem jeito
TTITLE6=Você ainda vai voltar
TTITLE7=Flor do meu sertão
TTITLE8=É só fazendo amor
TTITLE9=Paixão de um homem/Na hora do adeus
TTITLE10=Cara errado
TTITLE11=Coração bandido
TTITLE12=Latinha na mão
TTITLE13=Fantasia
TTITLE14=A fila anda
TTITLE15=Pra nunca dizer adeus
TTITLE16=Volte amor
TTITLE17=Água de coco
EXTD=
EXTT0=
EXTT1=
EXTT2=
EXTT3=
EXTT4=
EXTT5=
EXTT6=
EXTT7=
EXTT8=
EXTT9=
EXTT10=
EXTT11=
EXTT12=
EXTT13=
EXTT14=
EXTT15=
EXTT16=
EXTT17=
PLAYORDER=
